# xmcd
#
# Track frame offsets:
#	150
#	14166
#	28871
#	45761
#	61859
#	75322
#	90847
#	101814
#	114977
#	133769
#	150525
#	165758
#	184776
#	198595
#	211992
#	231646
#
# Disc length: 3367 seconds
#
# Revision: 1
# Processed by: cddbd v1.5.2PL0 Copyright (c) Steve Scherf et al.
# Submitted via: audiograbber 1.83.01
#
DISCID=c50d2510
DTITLE=Appeltown Washboard Worms - LIVE - COUNTRY-FIDDLE-ROCK
DYEAR=1900
DGENRE=Country
TTITLE0=Cotton Fields
TTITLE1=Down On The Corner
TTITLE2=Squaredance
TTITLE3=Ghostriders
TTITLE4=Folsom Prisom Blues
TTITLE5=The Entertainer
TTITLE6=Blue Suede Shoes
TTITLE7=Roll Over Beethoven
TTITLE8=Wabash Cannonball
TTITLE9=Sweet Home Alabama
TTITLE10=Drowsy Maggie
TTITLE11=Whiskey In The Jar
TTITLE12=Shake, Rattle and Roll
TTITLE13=Great Balls Of Fire
TTITLE14=Orange Blossom Special
TTITLE15=Leaving On A Jetplane
EXTD=
EXTT0=
EXTT1=
EXTT2=
EXTT3=
EXTT4=
EXTT5=
EXTT6=
EXTT7=
EXTT8=
EXTT9=
EXTT10=
EXTT11=
EXTT12=
EXTT13=
EXTT14=
EXTT15=
PLAYORDER=
